<mxfile host="app.diagrams.net" modified="2021-05-18T05:11:55.412Z" agent="5.0 (Windows NT 10.0; Win64; x64) AppleWebKit/537.36 (KHTML, like Gecko) Chrome/90.0.4430.212 Safari/537.36" etag="X07hUqbgnWCv77Kr2m8X" version="14.6.13" type="github">
  <diagram id="qTZTb0it0Jq9HlD-b2g0" name="Page-1">
    <mxGraphModel dx="2272" dy="794" grid="1" gridSize="10" guides="1" tooltips="1" connect="1" arrows="1" fold="1" page="1" pageScale="1" pageWidth="850" pageHeight="1100" math="0" shadow="0">
      <root>
        <mxCell id="0" />
        <mxCell id="1" parent="0" />
        <mxCell id="fD9GbsfEvXM9XrXEv9kA-1" value="" style="strokeWidth=1;shadow=0;dashed=0;align=center;html=1;shape=mxgraph.mockup.containers.browserWindow;rSize=0;strokeColor2=#008cff;strokeColor3=#c4c4c4;mainText=,;recursiveResize=0;fillColor=#bac8d3;strokeColor=#23445d;" parent="1" vertex="1">
          <mxGeometry x="-40" y="140" width="830" height="730" as="geometry" />
        </mxCell>
        <mxCell id="fD9GbsfEvXM9XrXEv9kA-2" value="Page 1" style="strokeWidth=1;shadow=0;dashed=0;align=center;html=1;shape=mxgraph.mockup.containers.anchor;fontSize=17;fontColor=#666666;align=left;" parent="fD9GbsfEvXM9XrXEv9kA-1" vertex="1">
          <mxGeometry x="60" y="12" width="110" height="26" as="geometry" />
        </mxCell>
        <mxCell id="fD9GbsfEvXM9XrXEv9kA-3" value="https://www.draw.io" style="strokeWidth=1;shadow=0;dashed=0;align=center;html=1;shape=mxgraph.mockup.containers.anchor;rSize=0;fontSize=17;fontColor=#666666;align=left;" parent="fD9GbsfEvXM9XrXEv9kA-1" vertex="1">
          <mxGeometry x="130" y="60" width="250" height="26" as="geometry" />
        </mxCell>
        <mxCell id="fD9GbsfEvXM9XrXEv9kA-4" value="&lt;b style=&quot;font-size: 29px&quot;&gt;gui&lt;/b&gt;&lt;b&gt;&lt;font style=&quot;font-size: 27px&quot;&gt;tar&lt;/font&gt;&lt;/b&gt;" style="rounded=0;whiteSpace=wrap;html=1;fillColor=#f5f5f5;strokeColor=#666666;fontColor=#333333;" parent="fD9GbsfEvXM9XrXEv9kA-1" vertex="1">
          <mxGeometry x="40" y="120" width="760" height="70" as="geometry" />
        </mxCell>
        <mxCell id="fD9GbsfEvXM9XrXEv9kA-9" value="&lt;ul class=&quot;BulletListStyle1 SCXW148472444 BCX0&quot; style=&quot;margin: 0px ; padding: 0px ; overflow: visible ; cursor: text ; font-family: &amp;#34;verdana&amp;#34; ; font-size: 10.6667px ; text-align: left ; background-color: rgb(255 , 255 , 255)&quot;&gt;&lt;li class=&quot;OutlineElement Ltr SCXW148472444 BCX0&quot; style=&quot;margin: 0px 0px 0px 24px ; padding: 0px ; overflow: visible ; cursor: text ; clear: both ; position: relative ; direction: ltr ; display: block ; font-size: 8pt ; font-family: &amp;#34;calibri&amp;#34; , &amp;#34;calibri_msfontservice&amp;#34; , sans-serif ; vertical-align: baseline&quot;&gt;&lt;p class=&quot;Paragraph SCXW148472444 BCX0&quot; style=&quot;margin: 0px ; padding: 0px ; overflow-wrap: break-word ; vertical-align: baseline ; background-color: transparent&quot;&gt;&lt;span lang=&quot;EN-US&quot; class=&quot;TextRun SCXW148472444 BCX0&quot; style=&quot;margin: 0px ; padding: 0px ; color: rgb(32 , 33 , 36) ; font-size: 8pt ; line-height: 12.95px ; font-family: &amp;#34;arial&amp;#34; , &amp;#34;arial_embeddedfont&amp;#34; , &amp;#34;arial_msfontservice&amp;#34; , sans-serif ; font-weight: bold&quot;&gt;1) Most&amp;nbsp;&lt;/span&gt;&lt;span lang=&quot;EN-US&quot; class=&quot;TextRun SCXW148472444 BCX0&quot; style=&quot;margin: 0px ; padding: 0px ; color: rgb(32 , 33 , 36) ; font-size: 8pt ; line-height: 12.95px ; font-family: &amp;#34;arial&amp;#34; , &amp;#34;arial_embeddedfont&amp;#34; , &amp;#34;arial_msfontservice&amp;#34; , sans-serif ; font-weight: bold&quot;&gt;guitars&lt;/span&gt;&lt;span lang=&quot;EN-US&quot; class=&quot;TextRun SCXW148472444 BCX0&quot; style=&quot;margin: 0px ; padding: 0px ; color: rgb(32 , 33 , 36) ; font-size: 8pt ; line-height: 12.95px ; font-family: &amp;#34;arial&amp;#34; , &amp;#34;arial_embeddedfont&amp;#34; , &amp;#34;arial_msfontservice&amp;#34; , sans-serif ; font-weight: bold&quot;&gt;&amp;nbsp;have 6 strings, but some have a different number including popular 4 and 12 string&lt;/span&gt;&lt;span lang=&quot;EN-US&quot; class=&quot;TextRun SCXW148472444 BCX0&quot; style=&quot;background-color: transparent ; font-size: 8pt ; margin: 0px ; padding: 0px ; color: rgb(32 , 33 , 36) ; line-height: 12.95px ; font-family: &amp;#34;arial&amp;#34; , &amp;#34;arial_embeddedfont&amp;#34; , &amp;#34;arial_msfontservice&amp;#34; , sans-serif ; font-weight: bold&quot;&gt;&amp;nbsp;versions and rare&amp;nbsp;&lt;/span&gt;&lt;span lang=&quot;EN-US&quot; class=&quot;TextRun SCXW148472444 BCX0&quot; style=&quot;background-color: transparent ; font-size: 8pt ; margin: 0px ; padding: 0px ; color: rgb(32 , 33 , 36) ; line-height: 12.95px ; font-family: &amp;#34;arial&amp;#34; , &amp;#34;arial_embeddedfont&amp;#34; , &amp;#34;arial_msfontservice&amp;#34; , sans-serif ; font-weight: bold&quot;&gt;guitars&lt;/span&gt;&lt;span lang=&quot;EN-US&quot; class=&quot;TextRun SCXW148472444 BCX0&quot; style=&quot;background-color: transparent ; font-size: 8pt ; margin: 0px ; padding: 0px ; color: rgb(32 , 33 , 36) ; line-height: 12.95px ; font-family: &amp;#34;arial&amp;#34; , &amp;#34;arial_embeddedfont&amp;#34; , &amp;#34;arial_msfontservice&amp;#34; , sans-serif ; font-weight: bold&quot;&gt;&amp;nbsp;with 7, 8, 9, and 10 strings.&lt;/span&gt;&lt;span class=&quot;EOP SCXW148472444 BCX0&quot; style=&quot;background-color: transparent ; font-size: 8pt ; margin: 0px ; padding: 0px ; line-height: 12.95px ; font-family: &amp;#34;arial&amp;#34; , &amp;#34;arial_embeddedfont&amp;#34; , &amp;#34;arial_msfontservice&amp;#34; , sans-serif ; color: rgb(32 , 33 , 36)&quot;&gt;&amp;nbsp;&lt;/span&gt;&lt;/p&gt;&lt;/li&gt;&lt;li class=&quot;OutlineElement Ltr SCXW148472444 BCX0&quot; style=&quot;margin: 0px 0px 0px 24px ; padding: 0px ; overflow: visible ; cursor: text ; clear: both ; position: relative ; direction: ltr ; display: block ; font-size: 8pt ; font-family: &amp;#34;calibri&amp;#34; , &amp;#34;calibri_msfontservice&amp;#34; , sans-serif ; vertical-align: baseline&quot;&gt;&lt;p class=&quot;Paragraph SCXW148472444 BCX0&quot; style=&quot;margin: 0px ; padding: 0px ; overflow-wrap: break-word ; vertical-align: baseline ; background-color: transparent&quot;&gt;&lt;span lang=&quot;EN-US&quot; class=&quot;TextRun SCXW148472444 BCX0&quot; style=&quot;margin: 0px ; padding: 0px ; color: rgb(32 , 33 , 36) ; font-size: 8pt ; line-height: 12.95px ; font-family: &amp;#34;arial&amp;#34; , &amp;#34;arial_embeddedfont&amp;#34; , &amp;#34;arial_msfontservice&amp;#34; , sans-serif ; font-weight: bold&quot;&gt;2) Mariachi bands from Mexico often use a number of different sized&amp;nbsp;&lt;/span&gt;&lt;span lang=&quot;EN-US&quot; class=&quot;TextRun SCXW148472444 BCX0&quot; style=&quot;margin: 0px ; padding: 0px ; color: rgb(32 , 33 , 36) ; font-size: 8pt ; line-height: 12.95px ; font-family: &amp;#34;arial&amp;#34; , &amp;#34;arial_embeddedfont&amp;#34; , &amp;#34;arial_msfontservice&amp;#34; , sans-serif ; font-weight: bold&quot;&gt;guitars&lt;/span&gt;&lt;span lang=&quot;EN-US&quot; class=&quot;TextRun SCXW148472444 BCX0&quot; style=&quot;margin: 0px ; padding: 0px ; color: rgb(32 , 33 , 36) ; font-size: 8pt ; line-height: 12.95px ; font-family: &amp;#34;arial&amp;#34; , &amp;#34;arial_embeddedfont&amp;#34; , &amp;#34;arial_msfontservice&amp;#34; , sans-serif ; font-weight: bold&quot;&gt;.&lt;/span&gt;&lt;span class=&quot;EOP SCXW148472444 BCX0&quot; style=&quot;margin: 0px ; padding: 0px ; font-size: 8pt ; line-height: 12.95px ; font-family: &amp;#34;arial&amp;#34; , &amp;#34;arial_embeddedfont&amp;#34; , &amp;#34;arial_msfontservice&amp;#34; , sans-serif ; color: rgb(32 , 33 , 36)&quot;&gt;&amp;nbsp;&lt;/span&gt;&lt;/p&gt;&lt;/li&gt;&lt;li class=&quot;OutlineElement Ltr SCXW148472444 BCX0&quot; style=&quot;margin: 0px 0px 0px 24px ; padding: 0px ; overflow: visible ; cursor: text ; clear: both ; position: relative ; direction: ltr ; display: block ; font-size: 8pt ; font-family: &amp;#34;calibri&amp;#34; , &amp;#34;calibri_msfontservice&amp;#34; , sans-serif ; vertical-align: baseline&quot;&gt;&lt;p class=&quot;Paragraph SCXW148472444 BCX0&quot; style=&quot;margin: 0px ; padding: 0px ; overflow-wrap: break-word ; vertical-align: baseline ; background-color: transparent&quot;&gt;&lt;span lang=&quot;EN-US&quot; class=&quot;TextRun SCXW148472444 BCX0&quot; style=&quot;margin: 0px ; padding: 0px ; color: rgb(32 , 33 , 36) ; font-size: 8pt ; line-height: 12.95px ; font-family: &amp;#34;arial&amp;#34; , &amp;#34;arial_embeddedfont&amp;#34; , &amp;#34;arial_msfontservice&amp;#34; , sans-serif ; font-weight: bold&quot;&gt;3) The Fender&amp;nbsp;&lt;/span&gt;&lt;span lang=&quot;EN-US&quot; class=&quot;TextRun SCXW148472444 BCX0&quot; style=&quot;margin: 0px ; padding: 0px ; color: rgb(32 , 33 , 36) ; font-size: 8pt ; line-height: 12.95px ; font-family: &amp;#34;arial&amp;#34; , &amp;#34;arial_embeddedfont&amp;#34; , &amp;#34;arial_msfontservice&amp;#34; , sans-serif ; font-weight: bold&quot;&gt;Guitar&lt;/span&gt;&lt;span lang=&quot;EN-US&quot; class=&quot;TextRun SCXW148472444 BCX0&quot; style=&quot;margin: 0px ; padding: 0px ; color: rgb(32 , 33 , 36) ; font-size: 8pt ; line-height: 12.95px ; font-family: &amp;#34;arial&amp;#34; , &amp;#34;arial_embeddedfont&amp;#34; , &amp;#34;arial_msfontservice&amp;#34; , sans-serif ; font-weight: bold&quot;&gt;&amp;nbsp;company makes around 90,000&amp;nbsp;&lt;/span&gt;&lt;span lang=&quot;EN-US&quot; class=&quot;TextRun SCXW148472444 BCX0&quot; style=&quot;margin: 0px ; padding: 0px ; color: rgb(32 , 33 , 36) ; font-size: 8pt ; line-height: 12.95px ; font-family: &amp;#34;arial&amp;#34; , &amp;#34;arial_embeddedfont&amp;#34; , &amp;#34;arial_msfontservice&amp;#34; , sans-serif ; font-weight: bold&quot;&gt;guitar&lt;/span&gt;&lt;span lang=&quot;EN-US&quot; class=&quot;TextRun SCXW148472444 BCX0&quot; style=&quot;margin: 0px ; padding: 0px ; color: rgb(32 , 33 , 36) ; font-size: 8pt ; line-height: 12.95px ; font-family: &amp;#34;arial&amp;#34; , &amp;#34;arial_embeddedfont&amp;#34; , &amp;#34;arial_msfontservice&amp;#34; , sans-serif ; font-weight: bold&quot;&gt;&amp;nbsp;strings a day&lt;/span&gt;&lt;span lang=&quot;EN-US&quot; class=&quot;TextRun SCXW148472444 BCX0&quot; style=&quot;margin: 0px ; padding: 0px ; color: rgb(32 , 33 , 36) ; font-size: 8pt ; line-height: 12.95px ; font-family: &amp;#34;arial&amp;#34; , &amp;#34;arial_embeddedfont&amp;#34; , &amp;#34;arial_msfontservice&amp;#34; , sans-serif ; font-weight: bold&quot;&gt;.&lt;/span&gt;&lt;span class=&quot;EOP SCXW148472444 BCX0&quot; style=&quot;margin: 0px ; padding: 0px ; font-size: 8pt ; line-height: 12.95px ; font-family: &amp;#34;arial&amp;#34; , &amp;#34;arial_embeddedfont&amp;#34; , &amp;#34;arial_msfontservice&amp;#34; , sans-serif ; color: rgb(32 , 33 , 36)&quot;&gt;&amp;nbsp;&lt;/span&gt;&lt;/p&gt;&lt;/li&gt;&lt;/ul&gt;" style="rounded=0;whiteSpace=wrap;html=1;fillColor=#e1d5e7;strokeColor=#9673a6;" parent="fD9GbsfEvXM9XrXEv9kA-1" vertex="1">
          <mxGeometry x="40" y="360" width="200" height="160" as="geometry" />
        </mxCell>
        <mxCell id="fD9GbsfEvXM9XrXEv9kA-8" value="&lt;span lang=&quot;EN-US&quot; class=&quot;TextRun SCXW136037215 BCX0&quot; style=&quot;margin: 0px ; padding: 0px ; text-align: left ; background-color: rgb(255 , 255 , 255) ; font-size: 12pt ; font-style: italic ; line-height: 19.425px ; font-family: &amp;#34;courier new&amp;#34; , &amp;#34;courier new_embeddedfont&amp;#34; , &amp;#34;courier new_msfontservice&amp;#34; , monospace ; font-weight: bold&quot;&gt;&lt;span class=&quot;NormalTextRun SCXW136037215 BCX0&quot; style=&quot;margin: 0px ; padding: 0px&quot;&gt;What is a guitar? The guitar is a fretted musical instrument with six strings. It&#39;s kept flat against the player&#39;s body and played by strumming or plucking the strings with the dominant hand while pressing the strings against the frets with the opposite hand&#39;s fingers.&lt;/span&gt;&lt;/span&gt;&lt;span class=&quot;EOP SCXW136037215 BCX0&quot; style=&quot;margin: 0px ; padding: 0px ; text-align: left ; background-color: rgb(255 , 255 , 255) ; font-size: 12pt ; line-height: 19.425px ; font-family: &amp;#34;courier new&amp;#34; , &amp;#34;courier new_embeddedfont&amp;#34; , &amp;#34;courier new_msfontservice&amp;#34; , monospace&quot;&gt;&amp;nbsp;&lt;/span&gt;" style="rounded=0;whiteSpace=wrap;html=1;fillColor=#f5f5f5;strokeColor=#666666;fontColor=#333333;" parent="fD9GbsfEvXM9XrXEv9kA-1" vertex="1">
          <mxGeometry x="250" y="200" width="550" height="150" as="geometry" />
        </mxCell>
        <mxCell id="42hRrMtLYQI0_UnX9Yjo-1" value="&lt;font style=&quot;font-size: 12px&quot;&gt;&lt;a class=&quot;Hyperlink SCXW70992228 BCX0&quot; href=&quot;https://www.youtube.com/watch?v=nXl38b1eIk8&quot; target=&quot;_blank&quot; style=&quot;margin: 0px ; padding: 0px ; font-family: &amp;#34;segoe ui&amp;#34; , &amp;#34;segoe ui web&amp;#34; , &amp;#34;arial&amp;#34; , &amp;#34;verdana&amp;#34; , sans-serif ; background-color: rgb(255 , 255 , 255)&quot;&gt;&lt;span lang=&quot;EN-US&quot; class=&quot;TextRun Underlined SCXW70992228 BCX0&quot; style=&quot;margin: 0px ; padding: 0px ; font-style: italic ; line-height: 19.425px ; font-family: &amp;#34;courier new&amp;#34; , &amp;#34;courier new_embeddedfont&amp;#34; , &amp;#34;courier new_msfontservice&amp;#34; , monospace ; font-weight: bold&quot;&gt;&lt;span class=&quot;NormalTextRun SCXW70992228 BCX0&quot; style=&quot;margin: 0px ; padding: 0px&quot;&gt;GREATEST Guitar Auditions On Got Talent, X Factor and Idols | Amazing Auditions&lt;/span&gt;&lt;/span&gt;&lt;/a&gt;&lt;span lang=&quot;EN-US&quot; class=&quot;TextRun EmptyTextRun SCXW70992228 BCX0&quot; style=&quot;margin: 0px ; padding: 0px ; background-color: rgb(255 , 255 , 255) ; font-style: italic ; line-height: 19.425px ; font-family: &amp;#34;courier new&amp;#34; , &amp;#34;courier new_embeddedfont&amp;#34; , &amp;#34;courier new_msfontservice&amp;#34; , monospace ; font-weight: bold&quot;&gt;&lt;/span&gt;&lt;span class=&quot;EOP SCXW70992228 BCX0&quot; style=&quot;margin: 0px ; padding: 0px ; background-color: rgb(255 , 255 , 255) ; line-height: 19.425px ; font-family: &amp;#34;courier new&amp;#34; , &amp;#34;courier new_embeddedfont&amp;#34; , &amp;#34;courier new_msfontservice&amp;#34; , monospace&quot;&gt;&amp;nbsp;&amp;nbsp;&lt;/span&gt;&lt;/font&gt;" style="rounded=0;whiteSpace=wrap;html=1;align=center;" vertex="1" parent="fD9GbsfEvXM9XrXEv9kA-1">
          <mxGeometry x="250" y="360" width="320" height="160" as="geometry" />
        </mxCell>
        <mxCell id="42hRrMtLYQI0_UnX9Yjo-3" value="" style="shape=image;verticalLabelPosition=bottom;labelBackgroundColor=#ffffff;verticalAlign=top;aspect=fixed;imageAspect=0;image=data:image/jpeg,/9j/4AAQSkZJRgABAQAAAQABAAD/2wCEAAoHCBUVFRgVFRUYGBgaGhgYGBgYGBgYGBgYGBgaGRgYGhgcIS4lHB4rHxgYJjgmKy8xNTU1GiQ7QDs0Py40NTEBDAwMEA8QHxISHzQhJCs0MTQ0NDQ0NDQ0NDQ0NDQ0NDQ0NDQ0NDQ0NDQ0NDQ0NDQxNDQxNDQ0NDQ0NDQ0NDQ0NP/AABEIAMIBAwMBIgACEQEDEQH/xAAbAAABBQEBAAAAAAAAAAAAAAADAAIEBQYBB//EADwQAAIBAgQEAwUGBQQCAwAAAAECAAMRBBIhMQUiQVEGYXETMoGRoUJSscHR8BQjYnLhB5Ki8RUkM4Ky/8QAGQEAAwEBAQAAAAAAAAAAAAAAAQIDAAQF/8QAIhEAAwEAAwEAAwEAAwAAAAAAAAECEQMSITEyQVEiE2GB/9oADAMBAAIRAxEAPwCGiwyLEiwqLAIJVhVWJVhVWYw1VlZixZjLgLK7F09TE5Phbg/Ip6jX3kCu8m4hLGVuJNhIo6WUXFX3lPJ3EqlzaQhOiV4c1vaHKJccBxXsqyP0vY+hlSokqlBS1YPPhqvFPDsr+0UclQXuO/WUK1ss0OA4+ppCjXXMo2bqPzkTEpg2++Pn+kWW5WM1LX4U+M4gGXLK7+IMu2wOEP26g+F/yg8R4euheg4qAe8uzj4Ruy/fgnV/oqGq6QBaL1nI4p28QM5EJgCJiBiM6q3mMdDRFo72R6RpQ9pgnCZKWuzXLEsbAXOugkWxkijYDWYyCrI9b3oUVBBjmN4AiY3NoNhCtpBmEwMzs6Y2YUUUUUxj2VFhlWcRYdEgEOKseFj1SPCzGGBZDxFO5MsgsiBbsZPk+FuH8jM8QBBtKLHVLCavilDUzG8T97L5ycnTXhQYsHNcwAlpxOjoDKwLOhfDmpehEEk04CmJJoiLTKyvCYgjisdSWPKQJmcgSsmcHxBp1kYfeCt5qxsR9fpI5Wdw4u6D+pR/yE1erAfCR444SKdclRYMM1vP9kTLEWnpP+oiWqU/7NfkswtagDtJ8N/5Whvj/aK6KFenaDM6EyDTRyIGKKYAVXjw8jzoaYOhS0GxjSYjMY7eFpmwgYVB0mMjpjWj8pjSJgg5yEIjDMA5FFeKYB7iiQyrOKsKogEEojgJwsBI9bFKswcJDG0jJqSfOVmL4pbaW2EXkU99ZLk+HRwz7pDx6azE8VwhFQN0m/xqXIlJxDDAgxJeFqWmH4mwtKVzLTjVJlNztewlOTLz6c9MMgk2isbw3CFz2A3M0GGFBeRhr3kuS0nn0vC1ECkNIULJGKw2RrdDqIICCa1aFoEyyVwPD58TSTvUU/7eY/hAVJo/9PMJnxJc7U0LfE6D8DNbyWxM9Af6hVM2Jyj7KgfP/qZEiafj38ytUfuxA9F0/KUVShJcbxJFWiGyBpCrUbS19nBvS0lpvBKjSmM5JOJp2kaWT05qWPDqmPCiDiBhAEKiNyxFpy8xhCPQ8wgzHIOswAztfaNMcBONAMDMbHERphAzkU7aKYB7sWAgKuMCylxPEu0ra2KJ6xXSQ88bZc4ninaVWIxpPWQmqQZaTdlp4kgqsXdV7kT0GjQIQDsBMR4fw+fEKO2s9AxFQKsSnpSUQsoY5esr8fQte8j08dbEDXQy64tRumYdomj4eTeJW5wp2kJOFOyhkGb03+XWSvEpPtwJYcLZRYByjdL+6fh1+EtrmdRytbTInC8M7uKS6fe6W9ZP8SVKNHLSQZn0zN2lt/5Baas1ZLE8q1U1HqSNvjMrj+CVGJqU29src11974r1+ElKVPa8HdNLEW+KYslNj2tIqmSKrciIQQQNQRaAMM+Idv0HUM3vg6j7HA1a53qEhfQaD63+cwWQsQo3JAHqTYT0nxCBQw1HDL0Av8B+sHK/FIJ9Zka1KQ2oSzNjBhIqRRsrWwvlOPhNNpcLTB0nKiCxELRtMRxinlsJVy88TizoP6byjnVH4o4+R/6YoooowghEYopjHZPwGDercIuYgXIlfNb4JFg7eYH7+cFPENK14ZytTZTlYFT2ItGNPTMbg0qrlZQZksd4ZdSfZnMvY7j4wKilcbXz0zpnCJNq8Nqr7yN8Bf8ACRWUjcW9dIdJtA7RR1ooQGzareMLxix4E5HR6EydnZ0CJ9BF3WM1i00PgdQajk9ppuMoQhtMj4MrBahHfab7EUs6ER6JSzyzEcSyVQpHMTpPQaFTPhxfe35TEeIOEZKgftNLwDFBqNibmK8wZb2wwPifC2q55Ewlc2N1Dp1Gl/8AM1Hijh7MpsNZkf4VqatrYgXMqnskLnKJ+HxRJ/kvcDelUP0BOo+Ms+CUEesMubD1BzFfsPa19Nj6iZKjilNg416OujCeg+FEb2ZZiKqk8ptzAfn/AIgtdRJesucdh6bi2Ip26Con43/WZ/iPhl0XPRYVE/p94X6Wmmo1CPcYEdUftuf0gQUzXUmi45rH3C76KD3klTQ5mvBuC9pjEVhohLm/ddLfM/SW/iriAqYh7bLyj4b/AL8pLxVXIS9VChRQorU92Z97gb/GVGO4PUUl0PtUsWZ196/W6b/jM/8AVaxpeeEMPCSMlQEaQ6HSMMFVp3Nc2gFaDxFfIjP0AJhQH8Mp4jrh67W2Wyypj6tQsSx3JJPxjJ0pYcjevRRRTohActOzk7MYVptfB9K1Inux+mn5TFT0jw/hclJAewJ9esW34V4l/ot0SBqgyaiaQFYWkdOpEAyPVw6NuoPwklzrGlYNM0Vh4ZS+6PlFD1cWASLRR8ZLYK1YRYFGh1M52daHqILENpDiQ8U+toeNbQnK8kn8Ae1ZPWeoO+W3nPKOFVMtRD/UJ6nihnQFd7StEoKzjOBWpaVuEwgoXPSQ8c2LUlhYjoJX4lMZVQg8skVTz9APE3HwbqhuR9Jn0u2Hd21JvIZwTLUyNr3k2q2WiydTtKPFiRGtrWzPILmw6z1Dg1A0qaKNLAXt1P7vMXwPhBc520VdflNDhOMEEqwuuw72jXabxEphpaaYuG0cWJsMy/7mjhWNgXAqJZqpP2gB7gA/e0r6eKVxyNqQFsd7ueb5CJnubKSpeoEFvuU9T8Lg/OT6h0n4S4KKj3FmrVKb2LHNqBrpvpA1q5dETO2GrOxKqASLBtj1W517aSHWxIdXLAq1ZxTR0tmyLsT5Xkx8UQzuQtSnRTKmXV1f3N9x9o9ZsCCxyKzu+Jo2Smt0rodX2WxA5XJJJtoZWNgHFP2qMK6X0KKQ4XqXTcW0Gl/WWWHpumHX+FbN7Q+0enUsSU9xVseVgTfsTB4mjTfEJRR3w9SnZQUB9mT772A5k1za6jSYG4U4e4HS4BAOhsdjbtKjxJi7IEG7G59BNVjP51c/xNABOZkxFNgL00BbmZbo/KPJtd5muJcAesxeg6VE1OhIKKLmzoeZbDS4uD3jxm+mqm5wyUUJUpFdxb8PnBzoOcQjgJwCW9Lw9iWGYUj5AlQx/wDqTeDUvoyTfwq7XjCLQtaiyMVZSrDcEWPynA0ICTwzD56iL3YX9BqfwnqOHTKAJhPCNANXzfdUn5/9GbKtjVGgN5G36dHCvNLQVABIWJq3lc2MbpB+1Y7yZfSWpg8S+VWY9ATHYZr6Ss8TV8iZRuxsIUteCW8WlAuIc6+v4xRtKmbCKXOQnU2kpTICGTEbScjR6UskXkCqbtJjHSV99TH4l9Jcz+IMhtrNHw7xQ6AK+oEzSmdvKNaRTw9FTxDRdZS8Y40WGVNB3mdo1cotOYmvm0En19K9/CubEWfM2pvLaphqFSzlraaiVTYcSTSQWsZqj+GVf0lVsWMns0FlHzMjiwEaY0mGZSFdadLlSCDY76dJpcJSZcIcS7e6roi+R0zX73mZoUi7qi+8xCj4mafx7iBSpUsKmygX9F/z+EXkppqV9YJndbO8P4jRyFUUOadMOrnQhtbgerEfKQgjrToojFKlWoXNt98i/mZjRUI2JHpLrh/iIq6PVF8iZUygaEKQp+ZlBHJqk4oDiKudLJTW5dd2WiRlDDZrub9N4LA13FKpUdlxKaIjC6uhqGz3a2amAhO9xqJV4aqn8M5RgWqOoIJBIVOY6eZI+UdjgaSUERij2NZipIAZ9FFxr7ij/dNiBjLNML7BKow9QOXf2YR8tmCWapZW5Ku6C4AOp0kJFQU3cf8Aq1Hb2annKXQq7kD36WuQXGbfYawXHHS6UqqsCiAGolh/McZ3umitqQNLHl3kvGLY+zqkVKVGiQzi5qCrYsVzDmS7EDmutlEGG0hvTGR3xdNWFgqVkCEuz3F7jkqEKGbm5gQtyCZRv4ZLm9B0qDqb5Sv96HVdtxmHnNdS4VVFFDSfIjKzurqGLl7WV0tlYBVXfudBFwarSoF84VM1r5CxTlvqA2qb6i5Ha0KrPgVHb6VXCOAJQs7gO43+6vmoPXz/AAmkwyqTcwaYtG5gcwN7EEEW7XEDW4gguAhdgM2RAWcjqQo1t5xKbo6FMyg/EuE0sQuV1BIvlYaMvof2JhuLeGalA3XnQmwNrMtzpmH5/hNfw3jivlOUqG2Db2FwSO4uCPhNEtNKiEdGX5X/AMiGac+E7iX6YDhXDTRU68zWzW/CThShLWJB3BIPqN49UvC3ppWeIEtKGCWjyJ3JvFGOUyBKHxY/MgmgReszHilgXUg3y9vrGj8hOX8RiHSKRKeNWwnJc5gqGSqDSAjSVQbWclI75ZPbaVt9TLVBeVNYWcjzj8f7J8/6YUNOloENOFpbCOhi8QeCRSxsoJPYC5+Qha+HdLZ0Zf7lIH1g8No4vOhpHUwitM0FMIZwtGlowm8CRmzVeA8CHqtWYctJSR/edvp+MzviTH+2xDt0vlX0H+bza4z/ANHh4TapU1bvdv0H4Tzios5pfa3X/iKpZJGbeNYQ1RZzLLpgwEpK6g2PcS5wnHiaqNiOZQUzWAvlWw0HoJTuICo1hGS0WvEbPhuIWviPaZrqWapUQ63C3dh+XxjuFYb22LS5ZXaoWexIPV3F9xcA/OY3hVCpUqqlMkM5y3Btod7+VtfhPVOB8HNHEpmcuURjcqBuMvT+4wUuokf6LvxC+SmbaafKeZY7huLckik+Q9SVUkHfQm4+U9OxFH2r2YciWJ8z0H5yv4tVyyaeels1Yee4bh9WjSqMoIdiihXy3Vb3a2tmJIRRsTdtO8TDUEq1Atmo1swCkZmQuTygr79M3tqM3oJL43xoNdOhuGsASOh0MXBcQyBqhK1UpIWQ6F0YkKoBIzJuxsQV5bi+8sm2tZGkk8RZ8Yrcw9tSL0xZExCMBUOUAFvardWJN2ytcgt0l74WqVXfKlZKlMAsS4ZKidgwAIN+4uPSZXhpJJbDVL5vepVMoZh2seSqN+x/pm98PIKOFeuUWkahKkc+mQldEY3XXNy36SNvEMigr4ym2Jqov2bMWvpmbcfn8YY0x0tGcGptVzuxSsGYhXp6VAo2DAgFra6EfGTGwjJzJzqNxYhl/uXcfh5yVXjwtE6tYACOCQyIHFwLC4BY6AE7XMiV0em9iQVN7EG40/7jTTzWgvqnmjcaxRCV942VR3ZjZfqZQ+K2phKVJFIdb5muLOALBtrg3vL3EolcZHc09QQQL63t36Ak/CYjiasKjKWLBSVViCMyg6ES/G00c/MnpC9jOQ2aKVIh1aHpvrIimODyDR2JmjwrXEZj+HFxnTU9R3/zK/CYg7S2w+IZdpPs5fhRyqWFXR4dWY2Wk5P9pH1Okv8AAeEyBnxDhF3yg6/EwyccdRZQoPfWZ7jNfE1b5qhK/dGg+kP/ACVXnwi+Hr79L/FeI8LhQUoIGYdR38zKOr4veq2Wqq5DoQNbD85l3pkGxnBKTxSvfrE7P4aLGUAtmQ3RtVP5GAVoLhePA/lvqjbH7p6EQ+Jw7IbHY6q3Rh3H6Rk/0xX/AFDS00Pgzhftq4dxyU+dj0JHuj85Q4LCvVcIilmP08z2E2XGMcnD8MMOhBqv7xG9zuT6fpE5K86z9YZWvSm8ZcX9viGCnkTlHa/X9PnM20F7Tr1MIrRVPVYW3ThiVJ3MI9WE2swKosrsQdbSzrPYEyoY3MrxkOV4sNh/pvQBru5+wlh6sd/+J+c11LilsWqk+8GQHs3vAf8AG3xEyn+n2Npr7VGNnYAr5gAgj4fnJXFqd2zC4IIIYbqQb3HmIvJ9KcS/yejM1gTbfU/v4TMcXZqjqiHmdgq/HqfICXGH40lWirqDcrlIItYjRvqDKnhiXxlK/dj8ka0mU/7ItfwXRpDmGd2NyzefW2wkDi1daFF0UBbLZSgylWOgtbbU7z0HjXu38rGeScew1SozgPcLY5SNSe1+8KbdY2K0uviBcNYVmVGp2dyFWpTAAZmNhmT3W1O65T3vPQfGOIGHw601UEIirzDMC1govruT8Zlf9POFk4kF86impqMpBGo0RgRpbNbXyk/xVjy9dVVwrFuZHtldRpbUW1J2PwM1+0kTXwLwajT9koyGmbX5GJAJ12bX6y8Wq4tZ1fsH0Yejbj5yDSogiyjKwFsvT4X/AAM67dDOV+s6klhZPildDRqJkV2DZ7XXMu3N0EosRgaiWQOKiKSQyEEC/Sw1hg5GxI9Dp8oxq9tSqk9xyt8xHVNLBOi7aRFOZgtrEm05juHEpeymxsV0JHqOkscPxII6uLZkIIzqG2/qGs5xTCK18RSqA5rs6CwuWNyAPWU48/YnI2vEZT/xdM/ZPzikz2T9VMUPev6brP8ADIgwiCCEMkqwInYa0sEeVdF5LptJUi8smXjWM4DGO0UZlNWTnMNTwStOV15pKwxlHTzw5M9Ix4MxIC9ZouHYHEUUtVRKtLfK+49CYzA1QrqW2B1knxZ4mDKKVHtzHt/mPG34xLrr8A1fGVOgpTD4cU22J0/GYvGY56rl3a7H92EG5JgiplVxqfUS/wCRv6EDxy1YCxjghh6hXJhKWtHpUkEgiFpIT6QdB1yknEVLi0gNJuQGRayER1PVEHfahUKrKwZSQwNwR3mz4fxxMQAj2R9uysf6T0PkfrMPHDWLUqik25+HsvD8EEpBOtyfnHYJCuJpkj7wBGx5G6zCcI8T1KKBH5wNiTZgO1+o9ZdJ4zpHVkdWHYBhfuDf8pB8dIvPLNfvDa8UxQA5tjM7RwqM5Yagm5v6WlZjvFNF11Z9OgTU/Em0qani5hy06YA7s2vyH6zLjp/oZ8sz+zc4mqEVsjZGyMA17WuOvlt8p5hTLZgWKs5sRnYkMouMo00N9QQes7i+LVsQVRmABYDKvKCSbAsSdfibSPxI2qZRplsvoR+/pKTDX0hXIm/DdYDGNkUEHbYnUejfrLMsW0ILeYHMPUdRKDw9jUqplawdRqPvDowH4zU4ZGajlwzZMQrEnMQFdG6AnYic3Tax+HT3ydXpTuWUnt3/AHt6Rj1AYerVJc51CNazADkOp3Xp1PxgquHv7uh7d/7T19IlT1eDzXadIzi8CwtH1KgGhhMH7MsRULAEaMutj5jqJkZkzDYKoyhg518xFNHheA08i2qHa+3fWcjYifY8VEKhgAYRTOloVMk0zrJdNpBRpJRpOkUlk6m8I63kVGklWuImFEyBiFsYSkY7FjSRDUOwjzLrw5rpS22Fr4jpIDi8kBYik65lSsRw3bp6RBSjlpayWEnAohwXsR2pWjFWSHEGohSFdHCs6s4zdIxjCD1iZu0aXB0IiYwLCAZIFUW220GIe0G6WitFkwyvp5wgva8jIYRmvMjMJn0jdLGPw2GaowVRcnXsABuxPQDvL1OHqq5UbfR6mzEfaC391fqevaJVqQzxuvSio0iVzX623F9r7b28500T036DzhcbkzWQcq6A9T53kbMwjy/PRKX+vGSKGYEMpKncWNiJpeGeJnUgVLhh9tN/iJk0c3Pnr8Z1nMFRNL0M3Uvxno61lqc+bPm1LXuTJ3BcMtRyjOq8rEBtAzDZb9CZjPCjsmd+UhroM4BAsMzsAeoHXSFw3iNC2V+Ug8rjY2OhPactcLmtXqO2eZVOPxl5xDFI91ek1NwbA2NjbS/nIb0yuu47jaWHEOKmuiKQDaxzg3Jttr2kEOR+Y6RLab8GhNL02+DH8tLn7I79opRYeniiqlVfLYWtfa0UOV/Bey/p5WI9TBXjgZ0YJpIUw6NIiGHRojQ6ZMQyTTaQ6Zh2qZReL11j9sWjcbV6dYBEnALm8lIk6plSsPO5bd1oMJaOtDIlzEEEOkyK6xBYZluYnQbXmAyFUOsHJDAQLgdIwoJj3gmeEZOxgWEw8izRhM6EMIid4B0hoSDrt0tJJMj4kbRWFfQCwqKSQALkkAAbknQAQM0fh/CZR7ZtzcU79OjP+IHxPQRKpStKTPZ4T8NhRSTILFjYuR1I2UH7o+p17SHxXG5RkTe3Mew7Q2Pxq0xa93I0HYdzKTLm1vcmS4odPtRTltSusnPaaTvtB2nDTNo3LOo5MQ/lM46rEBGsswEWTcRpiglNFdXAYOSQVJZrll6i4sPhKksOgjykboD3gSHb01fDvDeNCLURkyMASpbWx8jD43FU0fISVv0bcd7kabzUvjh/C06lPmpsApYfYYD3G+6fWYTjrhicwvZb+eY+6JG4TfpfjukjV4XxLWRFQObAWGvSKed+0YaZjp5xSfWv6U7T/CKJ2KKUMPWHpzsUDCiTTjsRsIopo/IHJ+LHU+kO0UUucI9dpyKKYwPrE+0UUwrIdaRjFFGQUMaMEUUwyC0I5t4oooxxpHxG0UUDCvpGmxoe6n9if/kRRSHN8R08X1mc4l/8j/3GDWKKWn4iF/WSUj+kUUcicacaKKAwN5wxRQhLDhmIdUdVdgDuASAfUSLjHJfUk7dfKciiUVkjVdzFFFJlD//Z;" vertex="1" parent="fD9GbsfEvXM9XrXEv9kA-1">
          <mxGeometry x="39.74" y="200" width="200.26" height="150" as="geometry" />
        </mxCell>
        <mxCell id="42hRrMtLYQI0_UnX9Yjo-5" value="" style="shape=image;verticalLabelPosition=bottom;labelBackgroundColor=#ffffff;verticalAlign=top;aspect=fixed;imageAspect=0;image=https://images.squarespace-cdn.com/content/v1/56285054e4b0337fcedd7d08/1597025806198-U0WUMDA8XPZGUCKKNU0K/ke17ZwdGBToddI8pDm48kIXJK910B27PpkOiqUYFUmxZw-zPPgdn4jUwVcJE1ZvWQUxwkmyExglNqGp0IvTJZamWLI2zvYWH8K3-s_4yszcp2ryTI0HqTOaaUohrI8PIosw82D5fIHZ3ECD8voV9OQyzEq03wWppL0bSNa99a1AKMshLAGzx4R3EDFOm1kBS/LE_Guitar-4864.jpg?format=1500w;" vertex="1" parent="fD9GbsfEvXM9XrXEv9kA-1">
          <mxGeometry x="580" y="365" width="225.43" height="150" as="geometry" />
        </mxCell>
        <mxCell id="42hRrMtLYQI0_UnX9Yjo-7" value="" style="rounded=0;whiteSpace=wrap;html=1;" vertex="1" parent="fD9GbsfEvXM9XrXEv9kA-1">
          <mxGeometry x="40" y="650" width="760" height="60" as="geometry" />
        </mxCell>
        <mxCell id="42hRrMtLYQI0_UnX9Yjo-6" value="" style="rounded=0;whiteSpace=wrap;html=1;" vertex="1" parent="fD9GbsfEvXM9XrXEv9kA-1">
          <mxGeometry x="40" y="530" width="760" height="110" as="geometry" />
        </mxCell>
        <mxCell id="fD9GbsfEvXM9XrXEv9kA-7" value="" style="verticalLabelPosition=bottom;shadow=0;dashed=0;align=center;html=1;verticalAlign=top;strokeWidth=1;shape=mxgraph.mockup.containers.userMale;strokeColor=#666666;strokeColor2=#008cff;" parent="1" vertex="1">
          <mxGeometry x="-240" y="310" width="170" height="150" as="geometry" />
        </mxCell>
      </root>
    </mxGraphModel>
  </diagram>
</mxfile>
